# xmcd
#
# Track frame offsets:
# 183
# 22790
# 38098
# 59578
# 72188
# 93908
# 113805
# 125803
# 138803
# 151280
# 170320
# 186140
# 207295
# 221685
#
# Disc length: 3195 seconds
#
#
# Revision: 3
# Processed by: cddbd v1.5.1PL0 Copyright (c) Steve Scherf et al.
# Submitted via: FreeRIP 2.90 
#
DISCID=bf0c790e
DTITLE=Emilio Santiago - Minha História
DYEAR=1997
DGENRE=MPB
TTITLE0=Saigon
TTITLE1=Pelo amor de Deus
TTITLE2=Logo agora
TTITLE3=As rosas não falam
TTITLE4=Verdade chinesa
TTITLE5=A noite
TTITLE6=Minhas madrugadas
TTITLE7=Guerreiro coração
TTITLE8=Trocando em miúdos
TTITLE9=Amigo e pra essas coisas
TTITLE10=Nega
TTITLE11=Beijo partido
TTITLE12=O mestre sala dos mares · De frente pro crime · Kid Cavaquinho
TTITLE13=Domingo
EXTD=
EXTT0=
EXTT1=
EXTT2=
EXTT3=
EXTT4=
EXTT5=
EXTT6=
EXTT7=
EXTT8=
EXTT9=
EXTT10=
EXTT11=
EXTT12=
EXTT13=
PLAYORDER=
